<svg width="675" height="299" viewBox="0 0 675 299" fill="none" xmlns="http://www.w3.org/2000/svg">
<path d="M672.222 277.422C672.222 278.942 670.29 280.197 667.85 280.197H5.59333C3.15333 280.197 1.22168 278.942 1.22168 277.422V4.03813C1.22168 2.45253 3.15333 1.19727 5.59333 1.19727H667.85C670.29 1.19727 672.222 2.45253 672.222 4.03813V277.356" stroke="#05B6CB" stroke-width="2.39458" stroke-miterlimit="10" stroke-dasharray="2.39 2.39"></path>
<path d="M4.94934 280.197C2.70761 280.197 0.746094 278.581 0.746094 276.733V4.66167C0.746094 2.69851 2.70761 1.19727 4.94934 1.19727H668.222C670.463 1.19727 672.425 2.69851 672.425 4.66167V276.733C672.425 278.581 670.463 280.197 668.222 280.197H4.94934Z" fill="black"></path>
<path d="M1.22168 1.19727H672.222V280.197H1.22168V1.19727Z" fill="white"></path>
<path d="M603.464 155.536C605.422 154.557 606.988 153.187 608.554 151.816C609.728 150.446 610.903 149.076 611.882 147.705C609.924 148.684 607.771 149.663 605.617 150.25C605.226 152.012 604.443 153.97 603.464 155.536Z" fill="#F5C33F"></path>
<path d="M604.833 95.8262C602.679 95.2388 600.33 95.0431 597.981 95.0431C596.61 95.0431 595.436 95.0431 594.065 95.2389C595.044 97.5881 595.632 100.133 595.827 102.678C599.351 103.07 602.484 104.049 605.616 105.419C605.812 102.287 605.616 98.9585 604.833 95.8262Z" fill="#F5C33F"></path>
<path d="M585.845 92.4982C586.236 92.3024 586.628 92.1066 587.019 91.9108C584.67 88.387 581.538 85.2547 577.818 83.1012C574.098 85.2547 570.966 88.1913 568.812 91.7151C569.4 91.9109 569.987 92.3024 570.574 92.4982C573.315 93.477 575.86 95.0431 578.21 96.8051C580.559 95.0431 583.104 93.477 585.845 92.4982Z" fill="#F5C33F"></path>
<path d="M597.982 150.25C600.331 150.25 602.68 150.055 604.834 149.467C606.009 145.16 606.008 140.658 605.03 136.546C602.289 137.917 599.157 138.7 596.024 139.091C595.437 142.811 594.458 146.531 592.696 149.859C594.458 150.054 596.22 150.25 597.982 150.25Z" fill="#F5C33F"></path>
<path d="M546.689 134.589C544.536 133.218 542.578 131.652 540.816 129.694C540.424 131.456 540.229 133.218 540.229 134.98C540.229 135.959 540.228 136.938 540.424 137.917C540.816 138.504 541.208 138.896 541.599 139.287C542.969 140.658 544.34 141.832 545.71 142.615C545.71 139.874 546.102 137.134 546.689 134.589Z" fill="#F5C33F"></path>
<path d="M570.77 152.795C572.727 155.145 575.077 157.102 577.817 158.864C580.558 157.102 583.103 154.949 585.061 152.404C582.712 151.425 580.362 150.055 578.209 148.293C575.86 150.055 573.315 151.621 570.77 152.795Z" fill="#F5C33F"></path>
<path d="M567.049 163.367C570.377 165.324 574.292 166.303 578.208 166.303C582.123 166.303 585.843 165.324 589.366 163.563C585.255 163.171 581.34 161.801 577.816 159.843C574.488 161.801 570.768 162.975 567.049 163.367Z" fill="#F5C33F"></path>
<path d="M558.436 95.0431C556.087 95.0431 553.738 95.2388 551.584 95.8262C550.801 98.9585 550.605 102.091 550.801 105.223C553.542 103.853 556.478 103.07 559.611 102.678C560.002 100.133 560.59 97.5881 561.568 95.2389C560.59 95.0431 559.415 95.0431 558.436 95.0431Z" fill="#F5C33F"></path>
<path d="M548.452 129.694C549.431 127.149 550.802 124.8 552.563 122.647C550.214 119.71 548.452 116.382 547.474 112.858C544.537 115.012 541.992 117.752 540.034 120.885C542.188 124.409 545.124 127.541 548.452 129.694Z" fill="#F5C33F"></path>
<path d="M551.583 149.467C553.736 150.054 556.086 150.25 558.435 150.25C560.001 150.25 561.567 150.054 562.937 149.859C561.175 146.531 560.197 143.007 559.609 139.091C556.673 138.7 553.932 137.917 551.191 136.938C550.408 140.853 550.408 145.16 551.583 149.467Z" fill="#F5C33F"></path>
<path d="M608.943 113.25C607.769 116.578 606.007 119.71 603.854 122.647C605.42 124.8 606.79 126.954 607.769 129.303C610.901 127.149 613.642 124.213 615.6 120.885C613.838 117.948 611.488 115.403 608.943 113.25Z" fill="#F5C33F"></path>
<path d="M589.955 154.166C588.976 155.536 587.802 156.906 586.627 158.081C588.389 158.472 590.151 158.668 591.913 158.668C593.087 158.668 594.458 158.668 595.828 158.472C596.611 157.298 597.394 156.319 598.177 155.144H597.981C595.241 155.144 592.696 154.753 589.955 154.166Z" fill="#F5C33F"></path>
<path d="M543.361 146.922C544.34 148.684 545.711 150.25 547.081 151.816C548.843 153.578 550.996 155.144 553.15 156.123C552.171 154.361 551.388 152.208 550.801 150.25C548.256 149.467 545.711 148.293 543.361 146.922Z" fill="#F5C33F"></path>
<path d="M583.299 79.5774C581.733 79.1859 579.971 78.9901 578.209 78.9901C576.251 78.9901 574.489 79.1859 572.728 79.5774C574.489 80.1647 576.252 80.9478 577.818 81.9267C579.58 80.9478 581.341 80.1647 583.299 79.5774Z" fill="#F5C33F"></path>
<path d="M610.118 108.16C611.88 109.334 613.446 110.705 614.816 112.075C615.208 110.313 615.404 108.551 615.404 106.789V106.594C615.208 106.398 615.012 106.202 614.816 105.81C613.446 104.636 612.076 103.461 610.705 102.482C610.705 104.44 610.51 106.398 610.118 108.16Z" fill="#F5C33F"></path>
<path d="M591.913 90.7363C593.87 90.149 596.024 90.1489 597.981 90.1489C598.112 90.1489 598.177 90.1489 598.177 90.1489C597.198 88.5828 596.22 87.2124 594.849 85.842C593.87 84.8632 592.696 83.8843 591.521 83.1012C589.955 83.1012 588.193 83.297 586.627 83.6885C588.585 85.6462 590.347 87.9955 591.717 90.3447C591.717 90.3447 591.913 90.5405 591.913 90.7363Z" fill="#F5C33F"></path>
<path d="M534.748 122.647C534.748 124.996 535.14 127.345 535.727 129.694C536.314 126.562 537.489 123.626 539.055 120.885C537.88 118.731 536.901 116.578 536.314 114.229C535.335 116.969 534.748 119.71 534.748 122.647Z" fill="#F5C33F"></path>
<path d="M614.034 98.9585C613.055 95.6304 611.097 92.6939 608.552 90.1489C606.203 87.6039 603.462 85.842 600.33 84.6674C602.875 87.7997 604.637 91.3235 605.616 95.0431C608.748 95.8262 611.489 97.1966 614.034 98.9585Z" fill="#F5C33F"></path>
<path d="M565.679 154.361C563.33 154.949 560.785 155.145 558.24 155.145C559.023 156.319 559.806 157.494 560.785 158.473C561.764 158.668 562.743 158.668 563.722 158.668C565.484 158.668 567.246 158.473 569.008 158.081C567.833 156.906 566.658 155.732 565.679 154.361Z" fill="#F5C33F"></path>
<path d="M609.532 134.197V134.393C610.315 137.134 610.707 139.874 610.707 142.615C612.077 141.636 613.448 140.658 614.818 139.287L615.014 139.091C615.405 137.721 615.405 136.351 615.405 134.98C615.405 133.218 615.209 131.456 614.818 129.694C613.252 131.456 611.49 132.827 609.532 134.197Z" fill="#F5C33F"></path>
<path d="M619.711 113.054C618.928 115.795 617.949 118.34 616.579 120.885C618.341 124.017 619.516 127.541 620.103 131.261C621.082 128.52 621.669 125.583 621.669 122.647C621.669 119.319 620.886 115.99 619.711 113.054Z" fill="#F5C33F"></path>
<path d="M556.478 84.2758C552.954 85.4504 549.822 87.4081 547.081 90.1488C544.34 92.8896 542.383 96.2177 541.208 99.7415C544.145 97.5881 547.277 96.0219 550.801 95.0431C551.78 91.1277 553.737 87.4081 556.478 84.2758Z" fill="#F5C33F"></path>
<path d="M546.102 107.572C545.906 106.006 545.71 104.244 545.71 102.482C544.34 103.461 542.969 104.636 541.795 105.81C541.207 106.398 540.62 106.985 540.229 107.572C540.229 108.943 540.424 110.509 540.816 112.075C542.382 110.313 544.144 108.943 546.102 107.572Z" fill="#F5C33F"></path>
<path d="M604.638 110.509C600.723 108.551 596.416 107.377 591.913 107.377H591.326V106.789C591.326 103.265 590.543 99.7416 589.172 96.4136C585.257 97.7839 581.537 99.9374 578.601 103.07L578.209 103.461L577.818 103.07C574.685 99.7416 570.77 97.3924 566.463 96.2178C565.093 99.5459 564.31 103.07 564.31 106.789V107.377H563.722C559.611 107.377 555.5 108.356 551.78 110.117C552.955 114.62 555.304 118.927 558.632 122.255L559.024 122.647L558.828 122.842L558.436 122.647L558.632 122.842C556.087 125.583 554.13 128.716 552.759 132.044C556.087 133.61 559.807 134.393 563.722 134.393H564.31V134.98C564.31 139.874 565.484 144.377 567.833 148.488C571.553 147.118 574.881 144.964 577.818 142.224L578.209 141.832L578.601 142.224C581.341 144.769 584.474 146.922 587.802 148.293C590.151 144.181 591.326 139.679 591.326 134.98V134.393H591.717C596.024 134.393 599.94 133.414 603.659 131.848C602.289 128.52 600.135 125.583 597.59 122.842L597.395 122.647L597.59 122.255C600.919 118.927 603.268 114.816 604.638 110.509Z" fill="#F5C33F"></path>
<path d="M563.722 90.5405L563.917 90.3447C565.288 87.9955 567.05 85.6462 569.008 83.6885C567.637 83.4928 566.267 83.297 564.896 83.1012C563.722 83.8843 562.547 84.8632 561.568 85.842C560.198 87.2124 559.219 88.5828 558.24 90.1489H558.436C560.198 90.1489 561.96 90.1489 563.722 90.5405Z" fill="#F5C33F"></path>
<path d="M424.528 104.049C426.486 100.329 429.031 97.5882 432.163 95.4347C438.624 91.3235 445.28 90.3447 452.328 93.477C456.83 95.4347 459.375 99.5459 460.55 104.244C460.942 106.594 461.137 109.139 461.137 111.488C461.333 122.647 461.333 134.001 461.137 145.356C461.137 147.509 461.529 149.467 462.508 151.425C463.095 152.599 463.486 153.774 464.074 155.144H439.799C440.582 153.383 441.365 151.816 441.952 150.054C442.343 149.076 442.539 147.901 442.539 146.726C442.539 136.155 442.539 125.387 442.539 114.816C442.539 113.054 442.343 111.292 442.148 109.726C441.56 106.594 439.603 104.44 436.666 103.265C432.751 101.895 429.031 102.091 425.507 104.049C425.116 104.244 424.528 104.832 424.528 105.419C424.528 119.514 424.528 133.806 424.528 147.901C424.528 148.488 424.724 149.076 425.116 149.663C425.703 151.425 426.486 153.187 427.269 155.144H402.994C403.777 153.187 404.56 151.425 405.343 149.663C405.539 149.076 405.735 148.488 405.735 147.901C405.735 135.959 405.93 124.017 405.735 112.075C405.735 106.398 402.015 102.678 396.142 102.482C393.597 102.287 391.052 102.482 388.703 103.657C387.919 104.049 387.724 104.44 387.724 105.419C387.724 119.514 387.724 133.61 387.724 147.705C387.724 149.076 388.507 150.446 389.094 151.816C389.486 152.991 390.073 153.97 390.464 155.144H366.385C367.168 153.187 367.951 151.425 368.538 149.663C368.93 148.88 369.126 148.097 369.126 147.314C369.126 132.435 369.126 117.752 369.126 103.07C369.126 100.916 368.147 98.9585 367.559 96.8051C367.168 95.6304 366.776 94.2601 366.385 92.8897H387.724V103.07C387.724 103.265 387.919 103.265 387.919 103.265C388.507 102.678 388.898 101.895 389.486 101.308C392.422 97.3924 396.142 94.2601 400.84 92.6939C406.518 90.932 412.195 90.932 417.481 94.2601C420.613 96.2178 422.571 98.9585 423.745 102.091C423.941 102.678 424.137 103.07 424.528 104.049Z" fill="#1E1E1E"></path>
<path d="M338.392 92.8897C339.175 92.8897 351.704 92.8897 357.577 92.8897C358.948 92.8897 359.535 93.477 359.535 94.6517C359.535 107.964 359.731 121.081 359.535 134.197C359.339 140.658 360.122 147.118 361.493 153.383C361.688 153.774 361.884 154.753 361.884 155.144H360.71C355.228 155.144 349.747 155.144 344.069 155.144C343.09 155.144 342.699 154.949 342.699 153.97C342.112 150.838 341.72 147.705 341.133 143.986C340.545 144.964 339.958 145.356 339.566 145.943C336.63 150.25 332.91 153.774 327.82 155.34C320.773 157.298 314.116 157.102 308.635 151.621C305.111 148.293 303.545 143.986 303.349 139.287C303.153 133.022 303.153 112.858 303.349 108.943C303.545 104.244 302.958 99.5459 301.196 95.239C301 94.4559 300.804 93.8685 300.608 92.8897C301.196 92.8897 314.312 92.8897 320.381 92.694C321.556 92.694 321.947 93.2813 321.947 94.4559C321.751 106.789 321.751 119.319 321.947 131.848C321.947 133.806 322.143 135.763 322.535 137.917C323.122 140.657 324.688 142.811 327.233 143.986C331.344 145.943 335.651 145.748 339.958 143.594C340.35 143.398 340.937 142.615 340.937 142.224C340.937 128.911 340.937 115.599 340.741 102.287C340.741 99.7417 339.567 97.3924 338.783 94.8474C338.588 94.2601 338.588 93.6728 338.392 92.8897Z" fill="#1E1E1E"></path>
<path d="M201.351 123.234C201.351 129.89 199.981 135.959 196.849 141.441C192.542 148.488 186.473 153.187 178.642 155.144C166.896 158.277 156.128 156.123 147.123 147.705C139.684 140.462 137.139 131.456 137.922 121.276C138.509 114.229 140.858 107.768 145.557 102.287C149.864 97.1967 155.15 94.0644 161.414 92.694C169.245 90.932 177.076 91.3235 184.319 95.0432C191.563 98.3713 196.457 104.049 199.198 111.488C200.764 115.207 201.351 119.319 201.351 123.234ZM158.478 132.827C158.869 137.917 159.261 143.007 160.827 147.901C161.806 150.446 162.785 152.795 164.938 154.166C169.245 157.298 175.314 155.536 177.272 150.25C178.642 146.922 179.621 143.203 180.012 139.679C181.383 128.52 181.187 117.361 179.621 106.202C179.229 102.482 178.25 98.9586 176.097 95.8262C172.965 91.1278 166.113 90.932 162.98 95.8262C161.61 98.1755 160.435 101.112 160.044 103.853C159.065 110.509 158.478 130.086 158.478 133.022V132.827Z" fill="#1E1E1E"></path>
<path d="M282.596 75.662C282.596 76.4451 282.792 86.6251 282.596 91.1278C282.596 92.4982 282.987 92.8897 284.358 92.8897C288.273 92.8897 292.189 92.8897 296.104 92.8897C297.279 92.8897 297.67 93.2813 297.67 94.4559C297.474 94.6517 297.67 95.0432 297.67 95.4347C297.474 98.5671 298.062 98.1755 294.734 98.1755C291.21 98.1755 287.686 98.1755 284.358 98.1755C282.987 98.1755 282.792 98.567 282.792 99.7416C282.792 111.879 282.792 124.213 282.792 136.351C282.792 137.721 282.987 139.287 283.379 140.462C284.358 144.573 287.49 146.531 291.993 146.139C294.146 145.943 296.3 145.16 298.453 144.573C298.453 144.964 298.257 145.552 297.866 146.139C292.384 156.711 280.834 158.473 272.22 154.361C268.109 152.404 265.564 149.076 264.781 144.377C264.389 142.028 264.193 139.679 264.193 137.329C264.193 124.8 264.193 112.467 264.193 99.9374C264.193 98.567 263.802 97.9797 262.432 98.1755L255.775 97.9797C255.775 97.9797 282.009 76.0535 282.596 75.662Z" fill="#1E1E1E"></path>
<path d="M470.536 154.949C469.165 149.467 466.425 137.721 466.62 137.721C467.012 137.917 476.409 146.531 480.912 150.642C483.652 152.991 486.589 154.753 490.504 155.145C494.811 155.34 498.922 153.383 500.489 149.663C502.25 145.552 501.076 140.658 497.748 137.721C495.203 135.372 491.875 134.001 488.742 132.631C485.023 131.065 481.107 129.694 477.388 127.933C471.319 124.996 468.382 120.102 467.795 113.25C467.012 102.287 474.647 94.2602 484.435 92.694C487.372 92.3025 490.308 92.3024 493.245 92.4982C497.943 92.4982 502.642 92.694 507.34 92.8897C507.732 92.8897 508.515 93.2813 508.711 93.6728C509.885 98.1755 511.843 107.964 511.843 107.964C511.256 107.377 502.642 100.133 498.727 96.8051C495.594 94.2601 492.266 92.4982 487.959 93.0855C484.044 93.477 481.107 96.4136 480.912 100.133C480.324 104.832 482.673 107.964 486.589 109.922C490.113 111.684 494.028 113.25 497.552 114.816C500.489 116.186 503.621 117.557 506.362 119.123C511.452 122.059 513.605 126.758 513.996 132.435C514.78 144.964 504.404 155.536 491.679 155.732C484.631 155.928 477.779 155.34 470.536 154.949Z" fill="#1E1E1E"></path>
<path d="M255.581 138.308C254.015 143.986 251.274 148.293 246.967 151.621C237.374 158.864 221.713 158.081 212.707 149.271C207.422 143.986 205.072 137.525 205.268 130.086C205.268 124.017 207.813 118.731 211.337 113.837C216.427 107.377 222.104 101.308 228.76 96.2178C233.067 92.8897 237.766 91.1278 243.247 91.3236C245.988 91.3236 248.729 91.3236 251.666 91.1278C252.84 91.1278 253.036 91.5194 253.036 92.694C253.036 97.0009 253.036 101.308 253.036 105.615C253.036 106.789 252.84 107.181 251.47 107.181C242.269 107.181 221.125 107.377 219.951 107.572C217.21 107.964 216.035 109.726 215.644 112.075C215.057 116.774 215.644 121.276 217.406 125.779C221.125 136.351 231.305 142.224 242.66 142.028C247.163 141.832 251.47 141.049 255.581 138.308Z" fill="#1E1E1E"></path>
<path d="M51.9805 155.34C52.7635 153.383 53.7424 151.816 54.3297 150.054C54.7213 148.88 55.1127 147.705 55.1127 146.531C55.1127 123.234 55.1128 99.9374 55.3086 76.6408C55.3086 74.8789 54.917 73.3127 54.1339 71.9423C53.3508 70.3762 52.7635 68.81 51.9805 67.0481C52.5678 67.0481 78.2136 67.0481 90.5471 67.0481C95.2456 67.0481 100.14 67.4396 104.838 68.6142C111.886 70.7677 118.151 74.2916 123.241 79.7731C128.722 85.6462 132.246 92.4982 133.812 100.329C136.357 113.641 134.4 126.171 126.765 137.329C120.696 146.335 112.278 152.404 101.51 154.361C98.3779 154.949 95.2455 155.34 91.9174 155.34C79.1924 155.536 52.5678 155.34 51.9805 155.34ZM75.277 154.361C80.5628 154.361 85.4571 154.557 90.5471 154.361C97.2033 154.166 102.293 151.033 106.013 145.552C109.732 140.07 111.299 133.806 112.082 127.149C113.452 117.557 113.452 107.768 112.473 97.9797C111.69 91.5193 110.32 85.4504 107.383 79.7731C103.468 72.1381 97.2033 68.0269 88.5894 68.0269C84.4783 68.0269 80.367 68.0269 76.0601 68.0269C75.8643 68.0269 75.6685 68.0269 75.277 68.0269V154.361Z" fill="#1E1E1E"></path>
<path d="M48.3545 215.497C48.9292 215.497 49.1414 215.598 49.2441 215.727C49.3001 215.797 49.3473 215.903 49.3789 216.077C49.4107 216.252 49.4229 216.475 49.4229 216.764V229.685C49.4228 229.973 49.4108 230.194 49.377 230.366C49.3436 230.536 49.2926 230.639 49.2305 230.708C49.1057 230.846 48.8403 230.951 48.1562 230.951C43.5543 230.951 35.9672 231 29.3838 231.073C26.0921 231.11 23.0502 231.153 20.7578 231.199C19.6118 231.222 18.652 231.245 17.9414 231.27C17.4179 231.287 17.0146 231.306 16.7734 231.326L16.5947 231.346C15.164 231.55 14.1166 232.118 13.3779 232.962C12.6439 233.801 12.2364 234.888 12.0352 236.096L12.0332 236.107C11.44 240.853 12.0332 245.403 13.8096 249.947V249.948C17.5798 260.663 27.8934 266.594 39.3516 266.396H39.3594C43.6461 266.21 47.7881 265.492 51.7588 263.057C50.1775 268.304 47.5283 272.317 43.4736 275.451C34.1467 282.494 18.9854 281.855 10.0254 273.529L9.60352 273.127C4.54497 268.067 2.2081 261.924 2.24316 254.851L2.25391 254.163V254.155C2.25395 248.179 4.75701 242.958 8.25879 238.092C13.3386 231.644 18.9985 225.596 25.6289 220.525L25.6299 220.524C29.8893 217.233 34.5207 215.5 39.9229 215.692H39.9336C42.6678 215.692 45.4131 215.692 48.3545 215.497Z" stroke="#05B6CB" stroke-width="0.598644"></path>
<path d="M18 45.2972L25.6235 34.6901V37.6901L18.3177 27.2972H22.9765L28.0588 34.5829H26.0471L31.0236 27.2972H35.5765L28.2706 37.4758V34.5829L36 45.2972H31.2353L25.9412 37.6901H27.8471L22.6588 45.2972H18Z" fill="#F5C33F"></path>
<path d="M640 45.2972L647.624 34.6901V37.6901L640.318 27.2972H644.976L650.059 34.5829H648.047L653.024 27.2972H657.577L650.271 37.4758V34.5829L658 45.2972H653.235L647.941 37.6901H649.847L644.659 45.2972H640Z" fill="#F5C33F"></path>
<path d="M640 250.197L647.624 239.59V242.59L640.318 232.197H644.976L650.059 239.483H648.047L653.024 232.197H657.577L650.271 242.376V239.483L658 250.197H653.235L647.941 242.59H649.847L644.659 250.197H640Z" fill="#F5C33F"></path>
<rect x="52.8281" y="67.6467" width="568.712" height="98.1776" stroke="#05B6CB" stroke-opacity="0.71" stroke-width="1.19729"></rect>
<rect x="0.5" y="0.797241" width="52" height="66" stroke="#05B6CB" stroke-opacity="0.71" stroke-miterlimit="16" stroke-dasharray="1.5 2.5"></rect>
<rect x="622.5" y="0.797241" width="52" height="66" stroke="#05B6CB" stroke-opacity="0.71" stroke-miterlimit="16" stroke-dasharray="1.5 2.5"></rect>
<rect x="622.722" y="213.697" width="49" height="66" stroke="#05B6CB" stroke-opacity="0.71" stroke-miterlimit="16" stroke-dasharray="1.5 2.5"></rect>
<path d="M505.443 219.581C503.827 219.581 502.255 219.348 500.728 218.883C499.223 218.441 497.995 217.799 497.043 216.958L498.57 214.501C499.389 215.209 500.396 215.762 501.591 216.161C502.787 216.581 504.037 216.792 505.343 216.792C507.423 216.792 508.951 216.305 509.925 215.331C510.898 214.357 511.385 212.874 511.385 210.882V207.164L511.717 203.678L511.551 200.158V195.344H514.573V210.55C514.573 213.649 513.798 215.928 512.249 217.389C510.699 218.85 508.431 219.581 505.443 219.581ZM505.044 212.21C503.34 212.21 501.813 211.856 500.463 211.148C499.135 210.417 498.072 209.41 497.275 208.126C496.501 206.843 496.113 205.36 496.113 203.678C496.113 201.973 496.501 200.49 497.275 199.229C498.072 197.945 499.135 196.949 500.463 196.241C501.813 195.533 503.34 195.178 505.044 195.178C506.549 195.178 507.921 195.488 509.161 196.108C510.4 196.706 511.385 197.635 512.116 198.897C512.868 200.158 513.245 201.752 513.245 203.678C513.245 205.581 512.868 207.164 512.116 208.425C511.385 209.687 510.4 210.639 509.161 211.28C507.921 211.9 506.549 212.21 505.044 212.21ZM505.409 209.421C506.582 209.421 507.623 209.178 508.53 208.691C509.438 208.204 510.146 207.529 510.655 206.666C511.186 205.802 511.452 204.806 511.452 203.678C511.452 202.549 511.186 201.553 510.655 200.69C510.146 199.826 509.438 199.162 508.53 198.698C507.623 198.211 506.582 197.967 505.409 197.967C504.236 197.967 503.185 198.211 502.255 198.698C501.348 199.162 500.629 199.826 500.097 200.69C499.588 201.553 499.334 202.549 499.334 203.678C499.334 204.806 499.588 205.802 500.097 206.666C500.629 207.529 501.348 208.204 502.255 208.691C503.185 209.178 504.236 209.421 505.409 209.421Z" fill="black"></path>
<path d="M476.137 212.94V195.344H479.191V200.092L478.693 198.83C479.269 197.68 480.154 196.783 481.349 196.141C482.544 195.499 483.939 195.178 485.532 195.178C486.971 195.178 488.233 195.455 489.317 196.008C490.424 196.562 491.287 197.403 491.907 198.532C492.526 199.66 492.836 201.088 492.836 202.814V212.94H489.649V203.18C489.649 201.475 489.229 200.192 488.387 199.328C487.569 198.465 486.407 198.034 484.902 198.034C483.773 198.034 482.788 198.255 481.947 198.698C481.106 199.14 480.453 199.793 479.988 200.656C479.545 201.52 479.324 202.593 479.324 203.877V212.94H476.137Z" fill="black"></path>
<path d="M467.86 212.942V195.346H471.047V212.942H467.86ZM469.454 191.959C468.834 191.959 468.314 191.76 467.893 191.362C467.495 190.963 467.296 190.476 467.296 189.901C467.296 189.303 467.495 188.805 467.893 188.407C468.314 188.009 468.834 187.809 469.454 187.809C470.074 187.809 470.583 188.009 470.981 188.407C471.402 188.783 471.612 189.259 471.612 189.835C471.612 190.432 471.413 190.941 471.014 191.362C470.616 191.76 470.096 191.959 469.454 191.959Z" fill="black"></path>
<path d="M461.152 213.141C459.381 213.141 458.009 212.665 457.035 211.714C456.061 210.762 455.574 209.401 455.574 207.63V191.495H458.761V207.497C458.761 208.449 458.994 209.179 459.458 209.688C459.945 210.198 460.631 210.452 461.517 210.452C462.513 210.452 463.343 210.175 464.007 209.622L465.003 211.913C464.516 212.333 463.929 212.643 463.243 212.843C462.579 213.042 461.882 213.141 461.152 213.141ZM452.586 197.969V195.346H463.808V197.969H452.586Z" fill="black"></path>
<path d="M446.931 212.941V188.306H450.118V212.941H446.931Z" fill="black"></path>
<path d="M432.862 213.141C431.357 213.141 430.029 212.864 428.878 212.311C427.749 211.757 426.863 210.916 426.222 209.787C425.602 208.636 425.292 207.198 425.292 205.471V195.345H428.479V205.106C428.479 206.833 428.889 208.127 429.708 208.991C430.549 209.854 431.722 210.285 433.227 210.285C434.333 210.285 435.296 210.064 436.115 209.621C436.934 209.157 437.565 208.493 438.008 207.629C438.45 206.744 438.672 205.682 438.672 204.442V195.345H441.859V212.941H438.838V208.194L439.336 209.455C438.76 210.628 437.897 211.536 436.746 212.178C435.595 212.82 434.3 213.141 432.862 213.141Z" fill="black"></path>
<path d="M414.868 213.14C413.408 213.14 412.013 212.94 410.685 212.542C409.379 212.144 408.35 211.657 407.598 211.081L408.926 208.558C409.678 209.067 410.608 209.499 411.714 209.853C412.821 210.207 413.95 210.384 415.101 210.384C416.584 210.384 417.646 210.174 418.288 209.753C418.952 209.333 419.284 208.746 419.284 207.994C419.284 207.44 419.085 207.009 418.686 206.699C418.288 206.389 417.757 206.157 417.093 206.002C416.451 205.847 415.732 205.714 414.935 205.603C414.138 205.47 413.341 205.316 412.544 205.138C411.748 204.939 411.017 204.674 410.353 204.342C409.689 203.988 409.158 203.512 408.76 202.914C408.361 202.294 408.162 201.475 408.162 200.457C408.162 199.395 408.461 198.465 409.058 197.668C409.656 196.872 410.497 196.263 411.582 195.842C412.688 195.4 413.994 195.178 415.499 195.178C416.65 195.178 417.812 195.322 418.985 195.61C420.18 195.876 421.154 196.263 421.907 196.772L420.546 199.295C419.749 198.764 418.919 198.399 418.056 198.2C417.192 198 416.329 197.901 415.466 197.901C414.072 197.901 413.031 198.133 412.345 198.598C411.659 199.041 411.316 199.616 411.316 200.324C411.316 200.922 411.515 201.387 411.914 201.719C412.334 202.029 412.865 202.272 413.507 202.449C414.171 202.626 414.902 202.781 415.698 202.914C416.495 203.025 417.292 203.18 418.089 203.379C418.886 203.556 419.605 203.81 420.247 204.142C420.911 204.474 421.442 204.939 421.84 205.537C422.261 206.134 422.471 206.931 422.471 207.927C422.471 208.99 422.161 209.908 421.542 210.683C420.922 211.458 420.048 212.066 418.919 212.509C417.79 212.929 416.44 213.14 414.868 213.14Z" fill="black"></path>
<path d="M388.22 212.94V195.344H391.274V200.092L390.776 198.83C391.352 197.68 392.237 196.783 393.432 196.141C394.627 195.499 396.022 195.178 397.615 195.178C399.054 195.178 400.316 195.455 401.4 196.008C402.507 196.562 403.37 197.403 403.99 198.532C404.609 199.66 404.919 201.088 404.919 202.814V212.94H401.732V203.18C401.732 201.475 401.312 200.192 400.471 199.328C399.652 198.465 398.49 198.034 396.985 198.034C395.856 198.034 394.871 198.255 394.03 198.698C393.189 199.14 392.536 199.793 392.071 200.656C391.628 201.52 391.407 202.593 391.407 203.877V212.94H388.22Z" fill="black"></path>
<path d="M375.678 213.14C373.907 213.14 372.336 212.752 370.963 211.978C369.591 211.203 368.507 210.141 367.71 208.79C366.913 207.418 366.515 205.869 366.515 204.142C366.515 202.394 366.913 200.845 367.71 199.494C368.507 198.144 369.591 197.093 370.963 196.34C372.336 195.566 373.907 195.178 375.678 195.178C377.426 195.178 378.987 195.566 380.359 196.34C381.753 197.093 382.838 198.144 383.613 199.494C384.409 200.822 384.808 202.372 384.808 204.142C384.808 205.891 384.409 207.44 383.613 208.79C382.838 210.141 381.753 211.203 380.359 211.978C378.987 212.752 377.426 213.14 375.678 213.14ZM375.678 210.351C376.807 210.351 377.814 210.096 378.699 209.587C379.607 209.078 380.315 208.359 380.824 207.429C381.333 206.478 381.587 205.382 381.587 204.142C381.587 202.881 381.333 201.796 380.824 200.889C380.315 199.959 379.607 199.24 378.699 198.731C377.814 198.222 376.807 197.967 375.678 197.967C374.549 197.967 373.542 198.222 372.657 198.731C371.771 199.24 371.063 199.959 370.532 200.889C370.001 201.796 369.735 202.881 369.735 204.142C369.735 205.382 370.001 206.478 370.532 207.429C371.063 208.359 371.771 209.078 372.657 209.587C373.542 210.096 374.549 210.351 375.678 210.351Z" fill="black"></path>
<path d="M357.072 213.207C355.301 213.207 353.664 212.919 352.159 212.344C350.676 211.746 349.381 210.916 348.274 209.854C347.19 208.769 346.337 207.508 345.718 206.069C345.098 204.63 344.788 203.048 344.788 201.321C344.788 199.595 345.098 198.012 345.718 196.574C346.337 195.135 347.201 193.885 348.307 192.822C349.414 191.738 350.709 190.908 352.192 190.332C353.697 189.735 355.335 189.436 357.105 189.436C358.898 189.436 360.547 189.746 362.052 190.365C363.579 190.963 364.874 191.859 365.937 193.055L363.779 195.146C362.893 194.217 361.897 193.53 360.791 193.088C359.684 192.623 358.5 192.391 357.238 192.391C355.932 192.391 354.715 192.612 353.586 193.055C352.479 193.497 351.517 194.117 350.698 194.914C349.879 195.711 349.237 196.662 348.772 197.769C348.329 198.854 348.108 200.038 348.108 201.321C348.108 202.605 348.329 203.8 348.772 204.907C349.237 205.992 349.879 206.932 350.698 207.729C351.517 208.526 352.479 209.146 353.586 209.588C354.715 210.031 355.932 210.252 357.238 210.252C358.5 210.252 359.684 210.031 360.791 209.588C361.897 209.123 362.893 208.415 363.779 207.463L365.937 209.555C364.874 210.75 363.579 211.658 362.052 212.277C360.547 212.897 358.887 213.207 357.072 213.207Z" fill="black"></path>
<path d="M316.693 212.94V195.344H319.748V200.092L319.25 198.83C319.825 197.68 320.711 196.783 321.906 196.141C323.101 195.499 324.495 195.178 326.089 195.178C327.528 195.178 328.789 195.455 329.874 196.008C330.98 196.562 331.844 197.403 332.463 198.532C333.083 199.66 333.393 201.088 333.393 202.814V212.94H330.206V203.18C330.206 201.475 329.785 200.192 328.944 199.328C328.125 198.465 326.963 198.034 325.458 198.034C324.329 198.034 323.344 198.255 322.503 198.698C321.662 199.14 321.009 199.793 320.545 200.656C320.102 201.52 319.881 202.593 319.881 203.877V212.94H316.693Z" fill="black"></path>
<path d="M304.151 213.14C302.381 213.14 300.809 212.752 299.437 211.978C298.065 211.203 296.98 210.141 296.183 208.79C295.387 207.418 294.988 205.869 294.988 204.142C294.988 202.394 295.387 200.845 296.183 199.494C296.98 198.144 298.065 197.093 299.437 196.34C300.809 195.566 302.381 195.178 304.151 195.178C305.9 195.178 307.46 195.566 308.833 196.34C310.227 197.093 311.312 198.144 312.086 199.494C312.883 200.822 313.281 202.372 313.281 204.142C313.281 205.891 312.883 207.44 312.086 208.79C311.312 210.141 310.227 211.203 308.833 211.978C307.46 212.752 305.9 213.14 304.151 213.14ZM304.151 210.351C305.28 210.351 306.287 210.096 307.173 209.587C308.08 209.078 308.788 208.359 309.297 207.429C309.807 206.478 310.061 205.382 310.061 204.142C310.061 202.881 309.807 201.796 309.297 200.889C308.788 199.959 308.08 199.24 307.173 198.731C306.287 198.222 305.28 197.967 304.151 197.967C303.023 197.967 302.016 198.222 301.13 198.731C300.245 199.24 299.537 199.959 299.005 200.889C298.474 201.796 298.209 202.881 298.209 204.142C298.209 205.382 298.474 206.478 299.005 207.429C299.537 208.359 300.245 209.078 301.13 209.587C302.016 210.096 303.023 210.351 304.151 210.351Z" fill="black"></path>
<path d="M288.339 212.942V195.346H291.526V212.942H288.339ZM289.932 191.959C289.313 191.959 288.793 191.76 288.372 191.362C287.974 190.963 287.774 190.476 287.774 189.901C287.774 189.303 287.974 188.805 288.372 188.407C288.793 188.009 289.313 187.809 289.932 187.809C290.552 187.809 291.061 188.009 291.46 188.407C291.88 188.783 292.09 189.259 292.09 189.835C292.09 190.432 291.891 190.941 291.493 191.362C291.094 191.76 290.574 191.959 289.932 191.959Z" fill="black"></path>
<path d="M281.63 213.141C279.859 213.141 278.487 212.665 277.513 211.714C276.539 210.762 276.052 209.401 276.052 207.63V191.495H279.24V207.497C279.24 208.449 279.472 209.179 279.937 209.688C280.424 210.198 281.11 210.452 281.995 210.452C282.991 210.452 283.821 210.175 284.485 209.622L285.481 211.913C284.994 212.333 284.408 212.643 283.722 212.843C283.058 213.042 282.36 213.141 281.63 213.141ZM273.064 197.969V195.346H284.286V197.969H273.064Z" fill="black"></path>
<path d="M267.665 212.94V209.222L267.499 208.525V202.184C267.499 200.834 267.1 199.793 266.304 199.063C265.529 198.31 264.356 197.934 262.784 197.934C261.744 197.934 260.726 198.111 259.73 198.465C258.734 198.797 257.893 199.251 257.207 199.826L255.879 197.436C256.786 196.706 257.871 196.152 259.132 195.776C260.416 195.378 261.755 195.178 263.15 195.178C265.562 195.178 267.421 195.765 268.727 196.938C270.033 198.111 270.686 199.904 270.686 202.316V212.94H267.665ZM261.888 213.14C260.582 213.14 259.431 212.918 258.435 212.476C257.461 212.033 256.709 211.424 256.178 210.65C255.646 209.853 255.381 208.956 255.381 207.96C255.381 207.009 255.602 206.146 256.045 205.371C256.51 204.596 257.251 203.976 258.269 203.512C259.31 203.047 260.704 202.814 262.452 202.814H268.03V205.105H262.585C260.992 205.105 259.918 205.371 259.365 205.902C258.812 206.433 258.535 207.075 258.535 207.828C258.535 208.691 258.878 209.388 259.564 209.919C260.25 210.428 261.202 210.683 262.419 210.683C263.614 210.683 264.655 210.417 265.54 209.886C266.448 209.355 267.1 208.58 267.499 207.562L268.13 209.753C267.709 210.794 266.968 211.624 265.905 212.243C264.843 212.841 263.504 213.14 261.888 213.14Z" fill="black"></path>
<path d="M246.439 213.14C244.646 213.14 243.041 212.752 241.625 211.978C240.23 211.203 239.135 210.141 238.338 208.79C237.541 207.44 237.143 205.891 237.143 204.142C237.143 202.394 237.541 200.845 238.338 199.494C239.135 198.144 240.23 197.093 241.625 196.34C243.041 195.566 244.646 195.178 246.439 195.178C248.032 195.178 249.449 195.499 250.688 196.141C251.95 196.761 252.924 197.691 253.61 198.93L251.186 200.49C250.611 199.627 249.902 198.996 249.061 198.598C248.242 198.178 247.357 197.967 246.405 197.967C245.254 197.967 244.225 198.222 243.318 198.731C242.41 199.24 241.691 199.959 241.16 200.889C240.629 201.796 240.363 202.881 240.363 204.142C240.363 205.404 240.629 206.5 241.16 207.429C241.691 208.359 242.41 209.078 243.318 209.587C244.225 210.096 245.254 210.351 246.405 210.351C247.357 210.351 248.242 210.152 249.061 209.753C249.902 209.333 250.611 208.691 251.186 207.828L253.61 209.355C252.924 210.572 251.95 211.513 250.688 212.177C249.449 212.819 248.032 213.14 246.439 213.14Z" fill="black"></path>
<path d="M224.7 213.141C223.195 213.141 221.867 212.864 220.716 212.311C219.588 211.757 218.702 210.916 218.06 209.787C217.441 208.636 217.131 207.198 217.131 205.471V195.345H220.318V205.106C220.318 206.833 220.728 208.127 221.546 208.991C222.388 209.854 223.561 210.285 225.066 210.285C226.172 210.285 227.135 210.064 227.954 209.621C228.773 209.157 229.404 208.493 229.846 207.629C230.289 206.744 230.51 205.682 230.51 204.442V195.345H233.698V212.941H230.676V208.194L231.174 209.455C230.599 210.628 229.736 211.536 228.585 212.178C227.434 212.82 226.139 213.141 224.7 213.141Z" fill="black"></path>
<path d="M202.935 213.14C201.23 213.14 199.703 212.764 198.353 212.011C197.025 211.259 195.974 210.207 195.199 208.857C194.424 207.507 194.037 205.936 194.037 204.143C194.037 202.35 194.424 200.79 195.199 199.462C195.974 198.111 197.025 197.06 198.353 196.308C199.703 195.555 201.23 195.179 202.935 195.179C204.418 195.179 205.757 195.511 206.952 196.175C208.147 196.839 209.099 197.835 209.807 199.163C210.538 200.491 210.903 202.151 210.903 204.143C210.903 206.135 210.549 207.795 209.84 209.123C209.154 210.451 208.214 211.458 207.018 212.144C205.823 212.808 204.462 213.14 202.935 213.14ZM203.2 210.351C204.307 210.351 205.303 210.097 206.188 209.588C207.096 209.079 207.804 208.359 208.313 207.43C208.844 206.478 209.11 205.382 209.11 204.143C209.11 202.881 208.844 201.797 208.313 200.889C207.804 199.96 207.096 199.24 206.188 198.731C205.303 198.222 204.307 197.968 203.2 197.968C202.072 197.968 201.064 198.222 200.179 198.731C199.294 199.24 198.586 199.96 198.054 200.889C197.523 201.797 197.258 202.881 197.258 204.143C197.258 205.382 197.523 206.478 198.054 207.43C198.586 208.359 199.294 209.079 200.179 209.588C201.064 210.097 202.072 210.351 203.2 210.351ZM209.21 212.941V208.193L209.409 204.11L209.077 200.026V188.306H212.264V212.941H209.21Z" fill="black"></path>
<path d="M175.11 212.942V189.702H191.511V192.59H178.43V210.054H191.976V212.942H175.11ZM178.132 202.55V199.728H190.084V202.55H178.132Z" fill="black"></path>
<path d="M154.103 212.94V195.344H157.157V200.125L156.858 198.93C157.345 197.713 158.164 196.783 159.315 196.141C160.466 195.499 161.882 195.178 163.565 195.178V198.266C163.432 198.244 163.299 198.233 163.166 198.233C163.055 198.233 162.945 198.233 162.834 198.233C161.13 198.233 159.78 198.742 158.784 199.76C157.788 200.778 157.29 202.25 157.29 204.176V212.94H154.103Z" fill="black"></path>
<path d="M142.607 213.14C140.725 213.14 139.065 212.752 137.627 211.978C136.21 211.203 135.103 210.141 134.307 208.79C133.532 207.44 133.145 205.891 133.145 204.142C133.145 202.394 133.521 200.845 134.273 199.494C135.048 198.144 136.099 197.093 137.427 196.34C138.777 195.566 140.294 195.178 141.976 195.178C143.68 195.178 145.185 195.555 146.491 196.307C147.797 197.06 148.815 198.122 149.545 199.494C150.298 200.845 150.674 202.427 150.674 204.242C150.674 204.375 150.663 204.53 150.641 204.707C150.641 204.884 150.63 205.05 150.608 205.205H135.635V202.914H148.948L147.653 203.711C147.675 202.582 147.443 201.575 146.956 200.69C146.469 199.804 145.794 199.118 144.931 198.631C144.089 198.122 143.105 197.868 141.976 197.868C140.869 197.868 139.884 198.122 139.021 198.631C138.158 199.118 137.483 199.815 136.996 200.723C136.509 201.608 136.265 202.626 136.265 203.777V204.308C136.265 205.482 136.531 206.533 137.062 207.462C137.615 208.37 138.379 209.078 139.353 209.587C140.327 210.096 141.445 210.351 142.706 210.351C143.746 210.351 144.687 210.174 145.528 209.82C146.391 209.466 147.144 208.934 147.786 208.226L149.545 210.284C148.749 211.214 147.753 211.922 146.557 212.409C145.384 212.896 144.067 213.14 142.607 213.14Z" fill="black"></path>
<path d="M113.168 212.941V188.306H116.355V200.092L115.724 198.831C116.3 197.68 117.185 196.783 118.38 196.142C119.576 195.5 120.97 195.179 122.564 195.179C124.002 195.179 125.264 195.455 126.348 196.009C127.455 196.562 128.318 197.403 128.938 198.532C129.558 199.661 129.868 201.088 129.868 202.815V212.941H126.68V203.18C126.68 201.476 126.26 200.192 125.419 199.329C124.6 198.466 123.438 198.034 121.933 198.034C120.804 198.034 119.819 198.255 118.978 198.698C118.137 199.141 117.484 199.794 117.019 200.657C116.577 201.52 116.355 202.593 116.355 203.877V212.941H113.168Z" fill="black"></path>
<path d="M98.9444 219.581C97.3287 219.581 95.7572 219.348 94.23 218.883C92.725 218.441 91.4966 217.799 90.5448 216.958L92.072 214.501C92.891 215.209 93.898 215.762 95.0932 216.161C96.2884 216.581 97.539 216.792 98.8448 216.792C100.925 216.792 102.453 216.305 103.426 215.331C104.4 214.357 104.887 212.874 104.887 210.882V207.164L105.219 203.678L105.053 200.158V195.344H108.074V210.55C108.074 213.649 107.3 215.928 105.75 217.389C104.201 218.85 101.932 219.581 98.9444 219.581ZM98.546 212.21C96.8418 212.21 95.3146 211.856 93.9644 211.148C92.6364 210.417 91.574 209.41 90.7772 208.126C90.0026 206.843 89.6152 205.36 89.6152 203.678C89.6152 201.973 90.0026 200.49 90.7772 199.229C91.574 197.945 92.6364 196.949 93.9644 196.241C95.3146 195.533 96.8418 195.178 98.546 195.178C100.051 195.178 101.423 195.488 102.663 196.108C103.902 196.706 104.887 197.635 105.618 198.897C106.37 200.158 106.746 201.752 106.746 203.678C106.746 205.581 106.37 207.164 105.618 208.425C104.887 209.687 103.902 210.639 102.663 211.28C101.423 211.9 100.051 212.21 98.546 212.21ZM98.9112 209.421C100.084 209.421 101.125 209.178 102.032 208.691C102.94 208.204 103.648 207.529 104.157 206.666C104.688 205.802 104.954 204.806 104.954 203.678C104.954 202.549 104.688 201.553 104.157 200.69C103.648 199.826 102.94 199.162 102.032 198.698C101.125 198.211 100.084 197.967 98.9112 197.967C97.7382 197.967 96.6868 198.211 95.7572 198.698C94.8498 199.162 94.1304 199.826 93.5992 200.69C93.0902 201.553 92.8356 202.549 92.8356 203.678C92.8356 204.806 93.0902 205.802 93.5992 206.666C94.1304 207.529 94.8498 208.204 95.7572 208.691C96.6868 209.178 97.7382 209.421 98.9112 209.421Z" fill="black"></path>
<path d="M82.9658 212.942V195.346H86.153V212.942H82.9658ZM84.5594 191.959C83.9396 191.959 83.4195 191.76 82.999 191.362C82.6006 190.963 82.4014 190.476 82.4014 189.901C82.4014 189.303 82.6006 188.805 82.999 188.407C83.4195 188.009 83.9396 187.809 84.5594 187.809C85.1791 187.809 85.6882 188.009 86.0866 188.407C86.5071 188.783 86.7174 189.259 86.7174 189.835C86.7174 190.432 86.5182 190.941 86.1198 191.362C85.7214 191.76 85.2012 191.959 84.5594 191.959Z" fill="black"></path>
<path d="M74.1508 212.942V189.702H77.4708V212.942H74.1508ZM57.4844 212.942V189.702H60.8044V212.942H57.4844ZM60.4724 202.584V199.695H74.4496V202.584H60.4724Z" fill="black"></path>
<path d="M514.903 68.4417H53.2217V155.732H514.903V68.4417Z" stroke="#08B7CA" stroke-opacity="0.44" stroke-miterlimit="10"></path>
<path d="M622.221 80.2002H536.273V165.371H622.221V80.2002Z" stroke="#05B6CB" stroke-opacity="0.66" stroke-miterlimit="10"></path>
<path d="M622.221 68.4417H53.2217V165.371H622.221V68.4417Z" stroke="#05B6CB" stroke-miterlimit="10"></path>
<path d="M622.221 164.82H53.2217V261.75H622.221V164.82Z" stroke="#05B6CB" stroke-miterlimit="10"></path>
<path d="M536.273 68.1177V261.751" stroke="#05B6CB" stroke-miterlimit="10"></path>
<path d="M622.221 213.284H53.2217" stroke="#05B6CB" stroke-miterlimit="10"></path>
<path d="M514.901 68.1177V261.751" stroke="#05B6CB" stroke-miterlimit="10"></path>
</svg>